<?xml version="1.0" encoding="utf-8"?>
<!-- Generator: Adobe Illustrator 27.9.0, SVG Export Plug-In . SVG Version: 6.00 Build 0)  -->
<svg  version="1.1" id="Camada_1" xmlns="http://www.w3.org/2000/svg" xmlns:xlink="http://www.w3.org/1999/xlink" x="0px" y="0px"
	 viewBox="0 0 1920 1080" style="enable-background:new 0 0 1920 1080;" xml:space="preserve">
<style type="text/css">
	.st0{fill:#FFFFFF;}
</style>
<g>
	<path class="st0" d="M1251.3,527c1.9-1.1,4.1-1.7,6.6-1.7c2.6,0,5,0.6,7.1,1.9c2.1,1.2,3.8,3,5,5.3c1.2,2.3,1.8,4.9,1.8,7.9
		c0,3-0.6,5.6-1.8,7.9c-1.2,2.3-2.9,4.1-5,5.4c-2.1,1.3-4.5,1.9-7.1,1.9c-2.5,0-4.7-0.6-6.6-1.7c-1.9-1.1-3.3-2.5-4.3-4.2v5.4h-4.9
		v-39.5h4.9v15.7C1247.9,529.6,1249.3,528.1,1251.3,527z M1265.4,534.6c-0.9-1.6-2.1-2.9-3.6-3.7c-1.5-0.9-3.2-1.3-5-1.3
		c-1.8,0-3.4,0.4-4.9,1.3c-1.5,0.9-2.7,2.1-3.6,3.8c-0.9,1.7-1.4,3.6-1.4,5.7c0,2.2,0.5,4.1,1.4,5.8c0.9,1.7,2.1,2.9,3.6,3.8
		s3.2,1.3,4.9,1.3c1.8,0,3.5-0.4,5-1.3c1.5-0.9,2.7-2.1,3.6-3.8c0.9-1.7,1.3-3.6,1.3-5.8C1266.8,538.2,1266.3,536.3,1265.4,534.6z"
		/>
	<path class="st0" d="M1280.8,532.5c1.2-2.3,2.9-4,5-5.3c2.1-1.2,4.5-1.9,7.1-1.9c2.6,0,4.8,0.6,6.7,1.7c1.9,1.1,3.3,2.5,4.2,4.2
		v-5.3h4.9v29.3h-4.9v-5.4c-1,1.7-2.4,3.1-4.3,4.2c-1.9,1.1-4.1,1.7-6.6,1.7c-2.6,0-4.9-0.6-7-1.9c-2.1-1.3-3.8-3.1-5-5.4
		c-1.2-2.3-1.8-4.9-1.8-7.9C1279,537.4,1279.6,534.8,1280.8,532.5z M1302.4,534.7c-0.9-1.6-2.1-2.9-3.6-3.8c-1.5-0.9-3.2-1.3-5-1.3
		c-1.8,0-3.5,0.4-5,1.3c-1.5,0.9-2.7,2.1-3.6,3.7c-0.9,1.6-1.3,3.6-1.3,5.8c0,2.2,0.4,4.2,1.3,5.8c0.9,1.7,2.1,2.9,3.6,3.8
		c1.5,0.9,3.2,1.3,5,1.3c1.8,0,3.5-0.4,5-1.3c1.5-0.9,2.7-2.1,3.6-3.8c0.9-1.7,1.3-3.6,1.3-5.8S1303.3,536.3,1302.4,534.7z"/>
	<path class="st0" d="M1342.5,528.6c2.2,2.2,3.3,5.3,3.3,9.3v17.2h-4.8v-16.6c0-2.9-0.7-5.2-2.2-6.7c-1.5-1.5-3.5-2.3-6-2.3
		c-2.6,0-4.6,0.8-6.1,2.4c-1.5,1.6-2.3,3.9-2.3,7v16.2h-4.9v-29.3h4.9v4.2c1-1.5,2.3-2.7,3.9-3.5c1.7-0.8,3.5-1.2,5.5-1.2
		C1337.4,525.3,1340.3,526.4,1342.5,528.6z"/>
	<path class="st0" d="M1376.9,526.7c1.8,0.9,3.2,2.4,4.2,4.2c1,1.9,1.5,4.2,1.5,6.9v17.2h-4.8v-16.6c0-2.9-0.7-5.2-2.2-6.7
		c-1.5-1.5-3.5-2.3-6-2.3c-2.6,0-4.6,0.8-6.1,2.4c-1.5,1.6-2.3,3.9-2.3,7v16.2h-4.9v-39.5h4.9V530c1-1.5,2.3-2.7,4-3.5
		c1.7-0.8,3.6-1.2,5.7-1.2C1373.1,525.3,1375.1,525.8,1376.9,526.7z"/>
	<path class="st0" d="M1398.6,553.7c-2.2-1.2-4-3-5.2-5.3c-1.3-2.3-1.9-5-1.9-8c0-3,0.6-5.6,1.9-7.9c1.3-2.3,3.1-4.1,5.3-5.3
		c2.2-1.2,4.8-1.8,7.5-1.8s5.3,0.6,7.5,1.8c2.2,1.2,4,3,5.3,5.3c1.3,2.3,1.9,4.9,1.9,8s-0.7,5.7-2,8c-1.3,2.3-3.1,4.1-5.4,5.3
		c-2.3,1.2-4.8,1.9-7.6,1.9C1403.3,555.6,1400.8,555,1398.6,553.7z M1410.9,550.1c1.5-0.8,2.8-2,3.7-3.7c0.9-1.6,1.4-3.6,1.4-6
		s-0.5-4.3-1.4-6c-0.9-1.6-2.1-2.9-3.6-3.7c-1.5-0.8-3.1-1.2-4.9-1.2c-1.8,0-3.4,0.4-4.9,1.2c-1.5,0.8-2.7,2-3.6,3.7
		c-0.9,1.6-1.3,3.6-1.3,6c0,2.4,0.4,4.4,1.3,6c0.9,1.6,2,2.9,3.5,3.7c1.5,0.8,3.1,1.2,4.8,1.2
		C1407.8,551.3,1409.4,550.9,1410.9,550.1z"/>
	<path class="st0" d="M1270.6,616.3l-4.9-4.9c-1.8,1.9-3.8,3.3-5.8,4.2c-2.1,0.9-4.4,1.4-7,1.4c-2.6,0-4.8-0.5-6.8-1.4
		c-2-0.9-3.5-2.2-4.6-4c-1.1-1.7-1.6-3.7-1.6-6c0-2.6,0.7-4.9,2.2-6.9c1.5-2,3.7-3.5,6.5-4.7c-1.1-1.4-2-2.6-2.5-3.7
		c-0.5-1.1-0.7-2.4-0.7-3.7c0-1.6,0.4-3,1.2-4.2c0.8-1.3,1.9-2.3,3.4-3c1.5-0.7,3.2-1.1,5.2-1.1c1.9,0,3.6,0.4,5,1.1
		c1.4,0.7,2.5,1.8,3.2,3.1c0.7,1.3,1,2.8,1,4.5h-4.9c0-1.5-0.4-2.6-1.2-3.4c-0.9-0.8-2-1.3-3.3-1.3c-1.4,0-2.6,0.4-3.4,1.2
		c-0.9,0.8-1.3,1.8-1.3,3.1c0,1.1,0.3,2.1,0.9,3.1c0.6,1,1.6,2.2,3,3.7l11.1,11.2l1-1.5l3.6-6.1h5.2l-4.4,7.6
		c-0.6,1.1-1.3,2.2-2.1,3.4l8.4,8.4H1270.6z M1258.1,611.6c1.5-0.7,3-1.9,4.4-3.5l-10.9-11c-4.6,1.7-6.8,4.5-6.8,8.3
		c0,2.1,0.8,3.8,2.3,5.2c1.5,1.4,3.5,2.1,5.9,2.1C1254.8,612.8,1256.6,612.4,1258.1,611.6z"/>
	<path class="st0" d="M1307,591v17.2c0,1.4,0.3,2.4,0.9,3c0.6,0.6,1.7,0.9,3.2,0.9h3.6v4.1h-4.4c-2.7,0-4.7-0.6-6.1-1.9
		c-1.4-1.2-2-3.3-2-6.1V591h-3.8v-4h3.8v-7.4h4.9v7.4h7.6v4H1307z"/>
	<path class="st0" d="M1328.5,614.9c-2.2-1.2-4-3-5.2-5.3c-1.3-2.3-1.9-5-1.9-8c0-3,0.6-5.6,1.9-7.9c1.3-2.3,3.1-4.1,5.3-5.3
		c2.2-1.2,4.8-1.8,7.5-1.8s5.3,0.6,7.5,1.8c2.2,1.2,4,3,5.3,5.3c1.3,2.3,1.9,4.9,1.9,8c0,3-0.7,5.7-2,8c-1.3,2.3-3.1,4.1-5.4,5.3
		c-2.3,1.2-4.8,1.9-7.6,1.9C1333.2,616.8,1330.7,616.1,1328.5,614.9z M1340.9,611.3c1.5-0.8,2.8-2,3.7-3.7c0.9-1.6,1.4-3.6,1.4-6
		c0-2.3-0.5-4.3-1.4-6c-0.9-1.6-2.1-2.9-3.6-3.7c-1.5-0.8-3.1-1.2-4.9-1.2c-1.8,0-3.4,0.4-4.9,1.2c-1.5,0.8-2.7,2-3.6,3.7
		c-0.9,1.6-1.3,3.6-1.3,6c0,2.4,0.4,4.4,1.3,6c0.9,1.6,2,2.9,3.5,3.7c1.5,0.8,3.1,1.2,4.8,1.2
		C1337.7,612.5,1339.3,612.1,1340.9,611.3z"/>
	<path class="st0" d="M1364.4,615.6c-1.8-0.8-3.2-1.8-4.2-3.2c-1-1.4-1.6-2.9-1.7-4.7h5c0.1,1.5,0.8,2.7,2.1,3.6
		c1.2,0.9,2.8,1.4,4.8,1.4c1.9,0,3.3-0.4,4.4-1.2c1.1-0.8,1.6-1.9,1.6-3.1c0-1.3-0.6-2.2-1.7-2.9c-1.1-0.6-2.9-1.2-5.3-1.8
		c-2.2-0.6-3.9-1.1-5.3-1.7c-1.4-0.6-2.5-1.5-3.5-2.6c-1-1.2-1.5-2.7-1.5-4.6c0-1.5,0.4-2.9,1.3-4.1c0.9-1.2,2.2-2.2,3.8-3
		c1.6-0.7,3.5-1.1,5.6-1.1c3.2,0,5.9,0.8,7.9,2.5c2,1.6,3.1,3.9,3.2,6.7h-4.9c-0.1-1.5-0.7-2.8-1.8-3.7c-1.1-0.9-2.6-1.4-4.5-1.4
		c-1.7,0-3.1,0.4-4.2,1.1c-1,0.7-1.5,1.7-1.5,2.9c0,1,0.3,1.8,0.9,2.4c0.6,0.6,1.4,1.1,2.3,1.5c0.9,0.4,2.3,0.8,3.9,1.3
		c2.1,0.6,3.8,1.1,5.1,1.7c1.3,0.6,2.4,1.4,3.4,2.5c0.9,1.1,1.4,2.5,1.5,4.3c0,1.6-0.4,3-1.3,4.3c-0.9,1.3-2.1,2.3-3.8,3
		c-1.6,0.7-3.5,1.1-5.6,1.1C1368.2,616.8,1366.1,616.4,1364.4,615.6z"/>
	<path class="st0" d="M1390.6,593.7c1.2-2.3,2.9-4,5-5.3c2.1-1.2,4.5-1.9,7.1-1.9c2.6,0,4.8,0.6,6.7,1.7c1.9,1.1,3.3,2.5,4.2,4.2
		V587h4.9v29.3h-4.9v-5.4c-1,1.7-2.4,3.1-4.3,4.2c-1.9,1.1-4.1,1.7-6.6,1.7c-2.6,0-4.9-0.6-7-1.9c-2.1-1.3-3.8-3.1-5-5.4
		c-1.2-2.3-1.8-4.9-1.8-7.9C1388.8,598.6,1389.4,595.9,1390.6,593.7z M1412.2,595.8c-0.9-1.6-2.1-2.9-3.6-3.8
		c-1.5-0.9-3.2-1.3-5-1.3s-3.5,0.4-5,1.3c-1.5,0.9-2.7,2.1-3.6,3.7c-0.9,1.6-1.3,3.6-1.3,5.8c0,2.2,0.4,4.2,1.3,5.8
		c0.9,1.7,2.1,2.9,3.6,3.8c1.5,0.9,3.2,1.3,5,1.3s3.5-0.4,5-1.3c1.5-0.9,2.7-2.1,3.6-3.8c0.9-1.7,1.3-3.6,1.3-5.8
		S1413.1,597.5,1412.2,595.8z"/>
	<path class="st0" d="M742.8,633.6L742.8,633.6c-21.5,0-39-17.4-39-39V485.4c0-21.5,17.4-39,39-39h0c21.5,0,39,17.4,39,39v109.2
		C781.8,616.1,764.4,633.6,742.8,633.6z"/>
	<path class="st0" d="M637.8,544.1l24.8-37.8c11.8-18,6.8-42.2-11.2-54h0c-18-11.8-42.2-6.8-54,11.2l-20.5,31.3V485
		c0-21.5-17.4-39-39-39h0c-21.5,0-39,17.4-39,39v109.2c0,21.5,17.4,39,39,39h0c21.5,0,39-17.4,39-39v-1.4l23,27.3
		c13.9,16.5,38.4,18.6,54.9,4.7l0,0c16.5-13.9,18.6-38.4,4.7-54.9L637.8,544.1z"/>
	<path class="st0" d="M954.6,544.1l24.8-37.8c11.8-18,6.8-42.2-11.2-54h0c-18-11.8-42.2-6.8-54,11.2l-20.5,31.3V485
		c0-21.5-17.4-39-39-39h0c-21.5,0-39,17.4-39,39v109.2c0,21.5,17.4,39,39,39h0c21.5,0,39-17.4,39-39v-1.4l23,27.3
		c13.9,16.5,38.4,18.6,54.9,4.7l0,0c16.5-13.9,18.6-38.4,4.7-54.9L954.6,544.1z"/>
	<path class="st0" d="M1194.2,578.1c-16.9-36.3-33.8-72.6-50.7-109c-7-14.9-21-22.4-35.1-22.5c-14.2,0.1-28.3,7.5-35.3,22.5
		c-4.9,10.4-9.7,20.8-14.6,31.2c-12.1,25.9-24.2,51.8-36.2,77.8c-11.3,24.2,4.6,51.7,30.1,55c1.7,0.2,3.4,0.3,5.2,0.3h4.4
		c19.9,0,36.1-16.1,36.1-36.1v-0.4c0-4.1-1.6-8-4.6-10.9c-5.3-5.2-10.6-10.4-15.9-15.7c-7.1-7.1-2.1-19.2,8-19.2h0.2h45.5h0.5
		c10.1,0,15.2,12.1,8,19.2c-5.3,5.2-10.6,10.4-16,15.6c-3,2.9-4.7,6.9-4.7,11.1v0c0,20.1,16.3,36.3,36.3,36.3h3.7
		C1187.4,633.4,1206.2,603.8,1194.2,578.1z"/>
</g>
</svg>
